<svg xmlns="http://www.w3.org/2000/svg" viewBox="0 0 272.89 73.55"><defs><style>.a{fill:#3c3c3b;}.b{fill:#878787;}.c{fill:#0095c4;}</style></defs><title>OpenTrials</title><path class="a" d="M49.62,21.88a11,11,0,0,1,2.12-3.68,9.71,9.71,0,0,1,3.4-2.46,12,12,0,0,1,9.09,0,9.75,9.75,0,0,1,3.38,2.46,11,11,0,0,1,2.12,3.68,13.73,13.73,0,0,1,.74,4.57,13.27,13.27,0,0,1-.74,4.48,10.69,10.69,0,0,1-2.12,3.61,9.76,9.76,0,0,1-3.38,2.41,12.21,12.21,0,0,1-9.09,0,9.72,9.72,0,0,1-3.4-2.41,10.69,10.69,0,0,1-2.12-3.61,13.27,13.27,0,0,1-.74-4.48A13.73,13.73,0,0,1,49.62,21.88ZM54,29.14a7.26,7.26,0,0,0,1,2.35,5.27,5.27,0,0,0,1.85,1.68,6.39,6.39,0,0,0,5.54,0,5.28,5.28,0,0,0,1.85-1.68,7.28,7.28,0,0,0,1-2.35,11.18,11.18,0,0,0,.32-2.69,12,12,0,0,0-.32-2.8,7.43,7.43,0,0,0-1-2.42,5.23,5.23,0,0,0-1.85-1.69,6.39,6.39,0,0,0-5.54,0A5.22,5.22,0,0,0,55,21.23a7.4,7.4,0,0,0-1,2.42,12,12,0,0,0-.32,2.8A11.18,11.18,0,0,0,54,29.14h0Z" transform="translate(0.06 0)"/><path class="a" d="M77.46,21.44v2h0.06a4.8,4.8,0,0,1,2-1.88A6.23,6.23,0,0,1,82.23,21a6.89,6.89,0,0,1,3.23.71,6.68,6.68,0,0,1,2.25,1.88A8,8,0,0,1,89,26.29a12.12,12.12,0,0,1,.43,3.25A11,11,0,0,1,89,32.62a7.84,7.84,0,0,1-1.31,2.61A6.47,6.47,0,0,1,85.54,37a6.58,6.58,0,0,1-3.06.68,6.19,6.19,0,0,1-2.72-.6,5.14,5.14,0,0,1-2-1.77H77.7v7.54H73.33V21.44h4.13ZM83.14,34a3.51,3.51,0,0,0,1.17-1.12,4.64,4.64,0,0,0,.63-1.62,9.54,9.54,0,0,0,.18-1.88,8.84,8.84,0,0,0-.2-1.88,5,5,0,0,0-.66-1.65,3.7,3.7,0,0,0-1.18-1.17,3.31,3.31,0,0,0-1.77-.45,3.37,3.37,0,0,0-1.8.45,3.6,3.6,0,0,0-1.17,1.15,4.79,4.79,0,0,0-.63,1.63,9.7,9.7,0,0,0-.18,1.91,8.8,8.8,0,0,0,.2,1.88,4.85,4.85,0,0,0,.65,1.62,3.73,3.73,0,0,0,4.76,1.13h0Z" transform="translate(0.06 0)"/><path class="a" d="M96.78,33.53a4.48,4.48,0,0,0,5.11.29,2.74,2.74,0,0,0,1.17-1.4h3.85a7.3,7.3,0,0,1-2.83,4.09,8.33,8.33,0,0,1-4.62,1.25,9.07,9.07,0,0,1-3.38-.6,7,7,0,0,1-2.55-1.71,7.68,7.68,0,0,1-1.61-2.65,9.67,9.67,0,0,1-.57-3.38,9.28,9.28,0,0,1,.58-3.32,7.69,7.69,0,0,1,4.23-4.43A8.24,8.24,0,0,1,99.47,21a7.56,7.56,0,0,1,3.49.74,7.06,7.06,0,0,1,2.48,2.11,8.67,8.67,0,0,1,1.4,3,11.26,11.26,0,0,1,.31,3.54H95.71A4.42,4.42,0,0,0,96.78,33.53Zm4.94-8.37a3.07,3.07,0,0,0-2.38-.86,3.81,3.81,0,0,0-1.74.35,3.32,3.32,0,0,0-1.11.88,3.21,3.21,0,0,0-.58,1.11,5,5,0,0,0-.2,1h7.11A5,5,0,0,0,101.72,25.16Z" transform="translate(0.06 0)"/><path class="a" d="M114,21.44v2.22h0.09a5,5,0,0,1,2.15-2,6.23,6.23,0,0,1,2.71-.63,7.42,7.42,0,0,1,2.88.48,4.27,4.27,0,0,1,1.77,1.32,5.12,5.12,0,0,1,.91,2.06,12.86,12.86,0,0,1,.26,2.69v9.78h-4.37v-9a5.58,5.58,0,0,0-.62-2.94,2.38,2.38,0,0,0-2.18-1A3,3,0,0,0,115,25.48a5.9,5.9,0,0,0-.8,3.49v8.34h-4.37V21.41H114v0Z" transform="translate(0.06 0)"/><path class="a" d="M126.75,19.44V15.38h18v4.06h-6.59v17.9h-4.83V19.44h-6.58Z" transform="translate(0.06 0)"/><path class="a" d="M148.13,21.44v3h0.06a5.34,5.34,0,0,1,.83-1.37,5.43,5.43,0,0,1,1.2-1.08,5.88,5.88,0,0,1,1.45-.69,5.23,5.23,0,0,1,1.6-.25,3.43,3.43,0,0,1,1,.15v4.06l-0.74-.11a7.83,7.83,0,0,0-.83,0,4.65,4.65,0,0,0-2,.4,3.51,3.51,0,0,0-1.34,1.09,4.36,4.36,0,0,0-.72,1.62,8.74,8.74,0,0,0-.22,2v7.17H144V21.53h4.15Z" transform="translate(0.06 0)"/><path class="a" d="M156.06,19v-3.6h4.37V19h-4.37Zm4.37,2.46v15.9h-4.37V21.43h4.37Z" transform="translate(0.06 0)"/><path class="a" d="M163.69,26.33a5.07,5.07,0,0,1,.77-2.55,5.24,5.24,0,0,1,1.72-1.63,7.52,7.52,0,0,1,2.35-.88,13.42,13.42,0,0,1,2.63-.26,17.9,17.9,0,0,1,2.43.17,7.45,7.45,0,0,1,2.25.66,4.43,4.43,0,0,1,1.66,1.37,3.83,3.83,0,0,1,.65,2.32v8.23a16.43,16.43,0,0,0,.12,2.06,3.69,3.69,0,0,0,.43,1.48h-4.43a6.16,6.16,0,0,1-.2-0.75,6.45,6.45,0,0,1-.11-0.79,5.69,5.69,0,0,1-2.46,1.51,9.88,9.88,0,0,1-2.89.43,7.82,7.82,0,0,1-2.12-.28,4.86,4.86,0,0,1-1.72-.86,4,4,0,0,1-1.15-1.48A5,5,0,0,1,163.2,33a4.63,4.63,0,0,1,.48-2.23,4,4,0,0,1,1.23-1.4,5.51,5.51,0,0,1,1.72-.78,18.5,18.5,0,0,1,2-.42q1-.15,1.94-0.25a11.66,11.66,0,0,0,1.69-.28,3,3,0,0,0,1.17-.54,1.18,1.18,0,0,0,.4-1,2.31,2.31,0,0,0-.23-1.12,1.7,1.7,0,0,0-.62-0.65,2.43,2.43,0,0,0-.89-0.31A7.36,7.36,0,0,0,171,23.9a3.32,3.32,0,0,0-2,.55,2.47,2.47,0,0,0-.86,1.85h-4.37Zm10.09,3.23a2,2,0,0,1-.69.38,7.12,7.12,0,0,1-.89.23q-0.48.09-1,.15t-1,.15a8,8,0,0,0-1,.25,2.88,2.88,0,0,0-.83.42,2,2,0,0,0-.57.66,2.12,2.12,0,0,0-.22,1,2,2,0,0,0,.22,1,1.64,1.64,0,0,0,.58.63,2.47,2.47,0,0,0,.86.32,5.5,5.5,0,0,0,1,.09,3.86,3.86,0,0,0,2-.43,2.88,2.88,0,0,0,1-1,3.3,3.3,0,0,0,.42-1.22,8.42,8.42,0,0,0,.08-1V29.56h0Z" transform="translate(0.06 0)"/><path class="a" d="M186,15.38v22h-4.37v-22H186Z" transform="translate(0.06 0)"/><path class="a" d="M193.15,33.39a2.56,2.56,0,0,0,.75.83,3.23,3.23,0,0,0,1.06.48,5,5,0,0,0,1.25.15,4.64,4.64,0,0,0,1-.11,3.28,3.28,0,0,0,.92-0.34,2.09,2.09,0,0,0,.69-0.62,1.6,1.6,0,0,0-1-2.48,26.25,26.25,0,0,0-3.64-1,15,15,0,0,1-1.86-.51,6.35,6.35,0,0,1-1.62-.77,3.74,3.74,0,0,1-1.14-1.2,3.4,3.4,0,0,1-.43-1.77,4.78,4.78,0,0,1,.6-2.52A4.42,4.42,0,0,1,191.28,22a7,7,0,0,1,2.21-.8A13.66,13.66,0,0,1,196,21a12.65,12.65,0,0,1,2.51.25,6.65,6.65,0,0,1,2.17.83,5,5,0,0,1,1.58,1.55A5.24,5.24,0,0,1,203,26h-4.15a1.91,1.91,0,0,0-1-1.71,4.37,4.37,0,0,0-2-.45,7.54,7.54,0,0,0-.8,0,2.66,2.66,0,0,0-.78.2,1.61,1.61,0,0,0-.6.45,1.17,1.17,0,0,0-.25.78,1.19,1.19,0,0,0,.43,1,3.31,3.31,0,0,0,1.12.6,14,14,0,0,0,1.58.42l1.81,0.4a18.63,18.63,0,0,1,1.86.52,6.13,6.13,0,0,1,1.62.82A4,4,0,0,1,203,30.32a3.71,3.71,0,0,1,.43,1.86,4.83,4.83,0,0,1-2.28,4.34,6.75,6.75,0,0,1-2.32.91,13.58,13.58,0,0,1-2.66.26,13.18,13.18,0,0,1-2.71-.28,7.15,7.15,0,0,1-2.35-.92,5.27,5.27,0,0,1-1.69-1.71,5.34,5.34,0,0,1-.72-2.66h4.15A2.39,2.39,0,0,0,193.15,33.39Z" transform="translate(0.06 0)"/><path class="b" d="M55,47.1l3.91,10H57.4l-1.09-3H52.08L51,57.1H49.6l3.89-10H55ZM56,53L54.29,48.3h0L52.6,53H56Z" transform="translate(0.06 0)"/><path class="b" d="M61,47.1v10H59.77v-10H61Z" transform="translate(0.06 0)"/><path class="b" d="M64.05,47.1v10H62.86v-10h1.19Z" transform="translate(0.06 0)"/><path class="b" d="M72.89,49.85v1H71.45v4.49a1.29,1.29,0,0,0,0,.34,0.34,0.34,0,0,0,.13.2,0.58,0.58,0,0,0,.27.09h1v1H72a4.27,4.27,0,0,1-.79-0.06,1.17,1.17,0,0,1-.53-0.23,1,1,0,0,1-.3-0.48,2.74,2.74,0,0,1-.1-0.81V50.78H69v-1h1.23V47.61h1.19v2.17h1.44Z" transform="translate(0.06 0)"/><path class="b" d="M75.39,47.1v3.82h0a1.58,1.58,0,0,1,.39-0.57A2.2,2.2,0,0,1,76.35,50,3,3,0,0,1,77,49.75a3.31,3.31,0,0,1,.67-0.07,3.14,3.14,0,0,1,1.19.2,1.92,1.92,0,0,1,1.18,1.38,4.49,4.49,0,0,1,.12,1.07v4.76H79v-4.9a1.44,1.44,0,0,0-.39-1.06,1.46,1.46,0,0,0-1.08-.39,2.43,2.43,0,0,0-.94.17,1.78,1.78,0,0,0-.67.48,2,2,0,0,0-.4.72,2.93,2.93,0,0,0-.13.9V57.1H74.16v-10h1.23Z" transform="translate(0.06 0)"/><path class="b" d="M87.11,56.63a3.29,3.29,0,0,1-2,.62,3.72,3.72,0,0,1-1.5-.28,3,3,0,0,1-1.07-.78,3.32,3.32,0,0,1-.65-1.2,5.79,5.79,0,0,1-.25-1.53,4.36,4.36,0,0,1,.25-1.51,3.61,3.61,0,0,1,.71-1.19A3.19,3.19,0,0,1,83.68,50,3.29,3.29,0,0,1,85,49.7a3,3,0,0,1,1.6.4,3.16,3.16,0,0,1,1,1,4,4,0,0,1,.53,1.34,5.76,5.76,0,0,1,.12,1.39H82.87a2.86,2.86,0,0,0,.11.9A2,2,0,0,0,84.1,56a2.46,2.46,0,0,0,1,.2,2.06,2.06,0,0,0,1.24-.35A1.69,1.69,0,0,0,87,54.76h1.18A2.9,2.9,0,0,1,87.11,56.63ZM86.82,52A2,2,0,0,0,85,50.76a2.07,2.07,0,0,0-.83.16,1.92,1.92,0,0,0-.64.44,2.11,2.11,0,0,0-.42.65,2.49,2.49,0,0,0-.18.79h4.16A2.43,2.43,0,0,0,86.82,52Z" transform="translate(0.06 0)"/><path class="b" d="M97,47.1a5,5,0,0,1,3.56,1.18,4.71,4.71,0,0,1,1.25,3.58,8.1,8.1,0,0,1-.28,2.23,4.17,4.17,0,0,1-.87,1.64,3.75,3.75,0,0,1-1.5,1,6,6,0,0,1-2.16.35H93.59v-10H97v0ZM97.13,56h0.56a3.14,3.14,0,0,0,.71-0.17,3.28,3.28,0,0,0,.75-0.38,2.52,2.52,0,0,0,.66-0.69,3.82,3.82,0,0,0,.48-1.08,5.71,5.71,0,0,0,.19-1.58,6.69,6.69,0,0,0-.18-1.6,3.07,3.07,0,0,0-.57-1.2,2.52,2.52,0,0,0-1-.76,4.09,4.09,0,0,0-1.55-.26H95V56h2.21Z" transform="translate(0.06 0)"/><path class="b" d="M109.66,57.06a1.69,1.69,0,0,1-.85.18,1,1,0,0,1-.73-0.26,1.13,1.13,0,0,1-.27-0.85,2.85,2.85,0,0,1-1.14.85,4,4,0,0,1-2.34.15,2.16,2.16,0,0,1-.76-0.35,1.67,1.67,0,0,1-.51-0.62,2.09,2.09,0,0,1-.19-0.93,2.13,2.13,0,0,1,.21-1,1.82,1.82,0,0,1,.55-0.64,2.51,2.51,0,0,1,.78-0.37,8,8,0,0,1,.9-0.21l0.93-.15a5.15,5.15,0,0,0,.78-0.14,1.29,1.29,0,0,0,.53-0.27,0.65,0.65,0,0,0,.2-0.51,1.19,1.19,0,0,0-.15-0.63,1,1,0,0,0-.38-0.36,1.55,1.55,0,0,0-.52-0.17,4,4,0,0,0-.57,0,2.51,2.51,0,0,0-1.26.29,1.22,1.22,0,0,0-.55,1.08h-1.19a2.57,2.57,0,0,1,.28-1.13,2.13,2.13,0,0,1,.67-0.75,2.82,2.82,0,0,1,1-.41,5.07,5.07,0,0,1,1.16-.13,6.75,6.75,0,0,1,1,.07,2.53,2.53,0,0,1,.88.29,1.68,1.68,0,0,1,.63.61,1.94,1.94,0,0,1,.24,1v3.72a2.74,2.74,0,0,0,0,.61,0.29,0.29,0,0,0,.33.2,1.45,1.45,0,0,0,.36-0.06v0.92Zm-1.93-3.71a1.5,1.5,0,0,1-.59.24q-0.36.08-.76,0.13l-0.8.11a3,3,0,0,0-.73.2,1.32,1.32,0,0,0-.53.4,1.11,1.11,0,0,0-.2.7,0.94,0.94,0,0,0,.43.83,1.31,1.31,0,0,0,.44.18,2.46,2.46,0,0,0,.53.06,2.82,2.82,0,0,0,1-.16,2.12,2.12,0,0,0,.69-0.4,1.6,1.6,0,0,0,.39-0.53,1.33,1.33,0,0,0,.13-0.54V53.36h0Z" transform="translate(0.06 0)"/><path class="b" d="M113.86,49.85v1h-1.44v4.49a1.29,1.29,0,0,0,0,.34,0.34,0.34,0,0,0,.13.2,0.58,0.58,0,0,0,.27.09h1v1H113a4.27,4.27,0,0,1-.79-0.06,1.17,1.17,0,0,1-.53-0.23,1,1,0,0,1-.3-0.48,2.74,2.74,0,0,1-.1-0.81V50.78H110v-1h1.23V47.61h1.19v2.17h1.44Z" transform="translate(0.06 0)"/><path class="b" d="M121.59,57.06a1.69,1.69,0,0,1-.85.18A1,1,0,0,1,120,57a1.13,1.13,0,0,1-.27-0.85,2.85,2.85,0,0,1-1.14.85,4,4,0,0,1-2.34.15,2.16,2.16,0,0,1-.76-0.35,1.67,1.67,0,0,1-.51-0.62,2.09,2.09,0,0,1-.19-0.93,2.13,2.13,0,0,1,.21-1,1.82,1.82,0,0,1,.55-0.64,2.51,2.51,0,0,1,.78-0.37,8,8,0,0,1,.9-0.21l0.93-.15a5.15,5.15,0,0,0,.79-0.1,1.29,1.29,0,0,0,.53-0.27,0.65,0.65,0,0,0,.2-0.51,1.19,1.19,0,0,0-.15-0.63,1,1,0,0,0-.38-0.36,1.55,1.55,0,0,0-.52-0.17,4,4,0,0,0-.57,0,2.51,2.51,0,0,0-1.26.29,1.22,1.22,0,0,0-.55,1.08h-1.19a2.57,2.57,0,0,1,.28-1.13,2.13,2.13,0,0,1,.67-0.75,2.82,2.82,0,0,1,1-.41,5.07,5.07,0,0,1,1.16-.13,6.75,6.75,0,0,1,1,.07,2.53,2.53,0,0,1,.88.29,1.68,1.68,0,0,1,.63.61,1.94,1.94,0,0,1,.24,1v3.72a2.74,2.74,0,0,0,0,.61,0.29,0.29,0,0,0,.33.2,1.45,1.45,0,0,0,.36-0.06v0.92Zm-1.93-3.71a1.5,1.5,0,0,1-.59.24q-0.36.08-.76,0.13l-0.8.11a3,3,0,0,0-.73.2,1.32,1.32,0,0,0-.53.4,1.11,1.11,0,0,0-.2.7,0.94,0.94,0,0,0,.43.83,1.31,1.31,0,0,0,.44.18,2.46,2.46,0,0,0,.53.06,2.82,2.82,0,0,0,1-.16,2.12,2.12,0,0,0,.69-0.4,1.6,1.6,0,0,0,.39-0.53,1.33,1.33,0,0,0,.13-0.54V53.36h0Z" transform="translate(0.06 0)"/><path class="b" d="M124.52,55.54v1.41a2.51,2.51,0,0,1-.36,1.37,2,2,0,0,1-1.18.81v-0.7a1,1,0,0,0,.4-0.25,1.43,1.43,0,0,0,.26-0.35,1.35,1.35,0,0,0,.13-0.39,1.4,1.4,0,0,0,0-.36H123V55.53h1.56Z" transform="translate(0.06 0)"/><path class="b" d="M130.31,52a3.37,3.37,0,0,1,.65-1.23,3.18,3.18,0,0,1,1.11-.8,4,4,0,0,1,3,0,3.2,3.2,0,0,1,1.1.8,3.39,3.39,0,0,1,.67,1.2,4.83,4.83,0,0,1,.22,1.49,4.77,4.77,0,0,1-.22,1.48,3.39,3.39,0,0,1-.67,1.2,3.11,3.11,0,0,1-1.1.8,4.16,4.16,0,0,1-3,0,3.1,3.1,0,0,1-1.11-.8,3.37,3.37,0,0,1-.67-1.2,4.75,4.75,0,0,1-.22-1.48A4.82,4.82,0,0,1,130.31,52Zm1.21,2.66a2.45,2.45,0,0,0,.48.85,2.09,2.09,0,0,0,.72.52,2.19,2.19,0,0,0,1.75,0,2.09,2.09,0,0,0,.72-0.52,2.45,2.45,0,0,0,.48-0.85,4,4,0,0,0,0-2.34,2.53,2.53,0,0,0-.48-0.86,2.06,2.06,0,0,0-.72-0.53,2.19,2.19,0,0,0-1.75,0,2.06,2.06,0,0,0-.72.53,2.53,2.53,0,0,0-.48.86A4,4,0,0,0,131.52,54.65Z" transform="translate(0.06 0)"/><path class="b" d="M139.64,49.85V51h0A2.51,2.51,0,0,1,142,49.68a3.14,3.14,0,0,1,1.19.2,1.92,1.92,0,0,1,1.18,1.38,4.49,4.49,0,0,1,.12,1.07v4.76h-1.19v-4.9a1.44,1.44,0,0,0-.39-1.06,1.46,1.46,0,0,0-1.08-.39,2.43,2.43,0,0,0-.94.17,1.78,1.78,0,0,0-.67.48,2,2,0,0,0-.4.72,2.93,2.93,0,0,0-.13.9V57.1h-1.19V49.86h1.15Z" transform="translate(0.06 0)"/><path class="b" d="M154.58,47.1l3.91,10H157l-1.09-3H151.7l-1.12,3h-1.36l3.89-10h1.47ZM155.5,53l-1.67-4.66h0L152.14,53h3.36Z" transform="translate(0.06 0)"/><path class="b" d="M160.52,47.1v10h-1.19v-10h1.19Z" transform="translate(0.06 0)"/><path class="b" d="M163.63,47.1v10h-1.19v-10h1.19Z" transform="translate(0.06 0)"/><path class="b" d="M172.47,49.85v1H171v4.49a1.29,1.29,0,0,0,0,.34,0.35,0.35,0,0,0,.13.2,0.58,0.58,0,0,0,.27.09h1v1h-0.88a4.27,4.27,0,0,1-.79-0.06,1.17,1.17,0,0,1-.53-0.23,1,1,0,0,1-.3-0.48,2.74,2.74,0,0,1-.1-0.81V50.78h-1.23v-1h1.23V47.61H171v2.17h1.44v0.07Z" transform="translate(0.06 0)"/><path class="b" d="M175,47.1v3.82h0a1.57,1.57,0,0,1,.39-0.57,2.21,2.21,0,0,1,.57-0.38,3,3,0,0,1,.66-0.22,3.31,3.31,0,0,1,.67-0.07,3.14,3.14,0,0,1,1.19.2,1.92,1.92,0,0,1,1.18,1.38,4.44,4.44,0,0,1,.12,1.07v4.76h-1.19v-4.9a1.43,1.43,0,0,0-.39-1.06,1.45,1.45,0,0,0-1.08-.39,2.44,2.44,0,0,0-.94.17,1.77,1.77,0,0,0-.67.48,2,2,0,0,0-.4.72,2.93,2.93,0,0,0-.13.9V57.1h-1.19v-10H175Z" transform="translate(0.06 0)"/><path class="b" d="M186.69,56.63a3.29,3.29,0,0,1-2,.62,3.72,3.72,0,0,1-1.5-.28,3,3,0,0,1-1.07-.78,3.32,3.32,0,0,1-.65-1.2,5.81,5.81,0,0,1-.25-1.53,4.36,4.36,0,0,1,.25-1.51,3.61,3.61,0,0,1,.71-1.19,3.2,3.2,0,0,1,1.08-.78,3.29,3.29,0,0,1,1.37-.28,3,3,0,0,1,1.6.4,3.16,3.16,0,0,1,1,1,4,4,0,0,1,.53,1.34,5.78,5.78,0,0,1,.12,1.39h-5.42a2.89,2.89,0,0,0,.11.9A2,2,0,0,0,183.69,56a2.46,2.46,0,0,0,1,.2,2.06,2.06,0,0,0,1.24-.35,1.69,1.69,0,0,0,.64-1.06h1.18A2.89,2.89,0,0,1,186.69,56.63ZM186.4,52a2,2,0,0,0-.43-0.65,2.06,2.06,0,0,0-.64-0.43,2,2,0,0,0-.82-0.16,2.07,2.07,0,0,0-.83.16,1.92,1.92,0,0,0-.64.44,2.1,2.1,0,0,0-.42.65,2.46,2.46,0,0,0-.18.79h4.16A2.46,2.46,0,0,0,186.4,52Z" transform="translate(0.06 0)"/><path class="b" d="M192.11,48.22V47.1h8v1.12h-3.33V57.1h-1.33V48.22h-3.34Z" transform="translate(0.06 0)"/><path class="b" d="M200.8,49.85v1.53h0a3.23,3.23,0,0,1,1.06-1.3,2.68,2.68,0,0,1,1.6-.39v1.26a3.36,3.36,0,0,0-1.22.2,1.92,1.92,0,0,0-.81.57,2.38,2.38,0,0,0-.45.92,5,5,0,0,0-.14,1.24V57.1h-1.19V49.86h1.15Z" transform="translate(0.06 0)"/><path class="b" d="M204.46,48.55V47.09h1.19v1.46h-1.19Zm1.19,1.3v7.24h-1.19V49.85h1.19Z" transform="translate(0.06 0)"/><path class="b" d="M213.91,57.06a1.68,1.68,0,0,1-.85.18,1,1,0,0,1-.74-0.26,1.13,1.13,0,0,1-.27-0.85,2.85,2.85,0,0,1-1.14.85,4,4,0,0,1-2.34.15,2.17,2.17,0,0,1-.76-0.35,1.67,1.67,0,0,1-.51-0.62,2.09,2.09,0,0,1-.19-0.93,2.13,2.13,0,0,1,.21-1,1.82,1.82,0,0,1,.55-0.64,2.52,2.52,0,0,1,.78-0.37c0.29-.08.6-0.15,0.9-0.21s0.64-.11.93-0.15a5.15,5.15,0,0,0,.78-0.14,1.29,1.29,0,0,0,.53-0.27,0.65,0.65,0,0,0,.2-0.51,1.19,1.19,0,0,0-.15-0.63,1,1,0,0,0-.38-0.36,1.55,1.55,0,0,0-.5-0.19,4,4,0,0,0-.57,0,2.52,2.52,0,0,0-1.26.29,1.22,1.22,0,0,0-.55,1.08h-1.19a2.57,2.57,0,0,1,.28-1.13,2.12,2.12,0,0,1,.67-0.75,2.81,2.81,0,0,1,1-.41,5.06,5.06,0,0,1,1.15-.13,6.75,6.75,0,0,1,1,.07,2.54,2.54,0,0,1,.88.29,1.68,1.68,0,0,1,.63.61,2,2,0,0,1,.24,1V55.4a2.74,2.74,0,0,0,0,.61,0.29,0.29,0,0,0,.33.2,1.44,1.44,0,0,0,.36-0.06v0.92h0Zm-2-3.71a1.5,1.5,0,0,1-.59.24q-0.36.08-.76,0.13l-0.81.11a3,3,0,0,0-.73.2,1.33,1.33,0,0,0-.53.4,1.11,1.11,0,0,0-.2.7,0.94,0.94,0,0,0,.43.83,1.3,1.3,0,0,0,.44.18,2.46,2.46,0,0,0,.53.06,2.82,2.82,0,0,0,1-.16,2.13,2.13,0,0,0,.69-0.4,1.61,1.61,0,0,0,.39-0.53,1.33,1.33,0,0,0,.13-0.54V53.36h0Z" transform="translate(0.06 0)"/><path class="b" d="M216.27,47.1v10h-1.19v-10h1.19Z" transform="translate(0.06 0)"/><path class="b" d="M219,55.47a1.27,1.27,0,0,0,.44.43,2,2,0,0,0,.62.23,3.51,3.51,0,0,0,.71.07,4.48,4.48,0,0,0,.59,0,2.19,2.19,0,0,0,.57-0.15,1.07,1.07,0,0,0,.43-0.33,0.88,0.88,0,0,0,.17-0.55,0.79,0.79,0,0,0-.35-0.7,3,3,0,0,0-.87-0.38q-0.53-.15-1.14-0.27a5.82,5.82,0,0,1-1.14-.34,2.35,2.35,0,0,1-.87-0.61,1.59,1.59,0,0,1-.35-1.09,1.74,1.74,0,0,1,.25-0.94,2,2,0,0,1,.63-0.64,2.87,2.87,0,0,1,.87-0.36,4,4,0,0,1,1-.12,5.69,5.69,0,0,1,1.13.11,2.62,2.62,0,0,1,.92.36,1.88,1.88,0,0,1,.64.7,2.64,2.64,0,0,1,.28,1.1h-1.19a1.22,1.22,0,0,0-.18-0.58A1.19,1.19,0,0,0,221.8,51a1.78,1.78,0,0,0-.53-0.2,2.7,2.7,0,0,0-.58-0.06,3.64,3.64,0,0,0-.54,0,1.82,1.82,0,0,0-.5.15,1,1,0,0,0-.36.28,0.71,0.71,0,0,0-.14.46,0.67,0.67,0,0,0,.22.51,1.74,1.74,0,0,0,.55.34,4.79,4.79,0,0,0,.76.22l0.84,0.19a8.8,8.8,0,0,1,.88.24,2.87,2.87,0,0,1,.76.37,1.82,1.82,0,0,1,.53.58,1.71,1.71,0,0,1,.2.87,2,2,0,0,1-.27,1.09,2.12,2.12,0,0,1-.71.7,3,3,0,0,1-1,.37,5.84,5.84,0,0,1-1.1.1,5.1,5.1,0,0,1-1.15-.13,2.82,2.82,0,0,1-1-.41,2.11,2.11,0,0,1-.67-0.76,2.61,2.61,0,0,1-.28-1.14h1.19A1.34,1.34,0,0,0,219,55.47Z" transform="translate(0.06 0)"/><path class="b" d="M227,55.54v1.41a2.5,2.5,0,0,1-.36,1.37,2,2,0,0,1-1.18.81v-0.7a1,1,0,0,0,.4-0.25,1.42,1.42,0,0,0,.26-0.35,1.35,1.35,0,0,0,.13-0.39,1.42,1.42,0,0,0,0-.36h-0.83V55.53H227Z" transform="translate(0.06 0)"/><path class="b" d="M234.43,47.1V56h5.29V57.1H233.1v-10h1.33Z" transform="translate(0.06 0)"/><path class="b" d="M240.76,48.55V47.09H242v1.46h-1.2Zm1.19,1.3v7.24h-1.19V49.85h1.19Z" transform="translate(0.06 0)"/><path class="b" d="M245,49.85V51h0a2.51,2.51,0,0,1,2.35-1.32,3.14,3.14,0,0,1,1.19.2,1.92,1.92,0,0,1,1.18,1.38,4.44,4.44,0,0,1,.12,1.07v4.76h-1.19v-4.9a1.43,1.43,0,0,0-.39-1.06,1.45,1.45,0,0,0-1.08-.39,2.44,2.44,0,0,0-.94.17,1.77,1.77,0,0,0-.67.48,2,2,0,0,0-.4.72,2.93,2.93,0,0,0-.13.9V57.1h-1.19V49.86H245Z" transform="translate(0.06 0)"/><path class="b" d="M252.84,47.1V53l3.3-3.16h1.6l-2.87,2.63,3.08,4.61h-1.51L254,53.31l-1.12,1V57h-1.19V47h1.19V47.1Z" transform="translate(0.06 0)"/><path class="b" d="M264,56.63a3.29,3.29,0,0,1-2,.62,3.72,3.72,0,0,1-1.5-.28,3,3,0,0,1-1.07-.78,3.32,3.32,0,0,1-.65-1.2,5.81,5.81,0,0,1-.25-1.53,4.36,4.36,0,0,1,.25-1.51,3.61,3.61,0,0,1,.71-1.19,3.2,3.2,0,0,1,1.08-.78,3.29,3.29,0,0,1,1.37-.28,3,3,0,0,1,1.6.4,3.16,3.16,0,0,1,1,1,4,4,0,0,1,.53,1.34,5.78,5.78,0,0,1,.12,1.39h-5.42a2.89,2.89,0,0,0,.11.9A2,2,0,0,0,261,56a2.46,2.46,0,0,0,1,.2,2.06,2.06,0,0,0,1.24-.35,1.69,1.69,0,0,0,.64-1.06H265A2.89,2.89,0,0,1,264,56.63ZM263.67,52a2,2,0,0,0-.43-0.65,2.06,2.06,0,0,0-.64-0.43,2,2,0,0,0-.82-0.16,2.07,2.07,0,0,0-.83.16,1.92,1.92,0,0,0-.64.44,2.1,2.1,0,0,0-.42.65,2.46,2.46,0,0,0-.18.79h4.16a2.46,2.46,0,0,0-.19-0.8h0Z" transform="translate(0.06 0)"/><path class="b" d="M271.64,57.09v-1h0a1.75,1.75,0,0,1-.92.87,3.52,3.52,0,0,1-1.39.27,3.27,3.27,0,0,1-1.46-.31,3,3,0,0,1-1-.83,3.58,3.58,0,0,1-.62-1.2,5,5,0,0,1-.21-1.46,5.1,5.1,0,0,1,.2-1.46,3.42,3.42,0,0,1,.62-1.2,3,3,0,0,1,1-.81,3.3,3.3,0,0,1,1.45-.3,3.55,3.55,0,0,1,.6.06,3.09,3.09,0,0,1,.64.19,2.76,2.76,0,0,1,.61.35,1.93,1.93,0,0,1,.48.54h0V47.08h1.19v10h-1.19Zm-4.28-2.57a2.65,2.65,0,0,0,.41.86,2,2,0,0,0,.7.6,2.12,2.12,0,0,0,1,.22,2,2,0,0,0,1.71-.86,2.59,2.59,0,0,0,.38-0.87,4.24,4.24,0,0,0,0-2,2.55,2.55,0,0,0-.4-0.87,2,2,0,0,0-.71-0.61,2.21,2.21,0,0,0-1-.23,2,2,0,0,0-1,.24,1.9,1.9,0,0,0-.67.63,2.73,2.73,0,0,0-.36.9,4.72,4.72,0,0,0-.11,1,3.7,3.7,0,0,0,.1,1h0Z" transform="translate(0.06 0)"/><path class="c" d="M18.52,0A18.54,18.54,0,0,0,0,18.52H0L0,54.17H0a18.52,18.52,0,0,0,37,1.72q0-.86,0-1.72V18.52A18.54,18.54,0,0,0,18.52,0Zm0.11,8.88H18.38a9.71,9.71,0,0,0-9.7,9.7V36.35H32.62V54.18A14.15,14.15,0,0,1,4.37,55.46L4.31,18.53a14,14,0,0,1,14-14h0.25a14,14,0,0,1,14,14l0.11,9.14H28.33V18.58A9.71,9.71,0,0,0,18.63,8.88Z" transform="translate(0.06 0)"/><path class="c" d="M17.42,55.94v3.67h2.2V55.94A2.16,2.16,0,1,0,17.42,55.94Z" transform="translate(0.06 0)"/></svg>
