<?xml version="1.0" encoding="utf-8"?>
<!-- Generated by IcoMoon.io -->
<!DOCTYPE svg PUBLIC "-//W3C//DTD SVG 1.1//EN" "http://www.w3.org/Graphics/SVG/1.1/DTD/svg11.dtd">
<svg version="1.1" xmlns="http://www.w3.org/2000/svg" xmlns:xlink="http://www.w3.org/1999/xlink" width="512" height="512" viewBox="0 0 512 512">
<g id="icomoon-ignore">
</g>
<path d="M462.628 175.84s16.788-175.84-191.166-175.84-187.52 193.36-186.057 212.332-26.285 59.097-35.76 80.983 24.812 21.166 24.812 21.166c-0.144 3.207-0.934 6.197-2.242 8.889-6.501 11.546 8.059 18.837 8.059 18.837-8 9.497 7.291 15.325 7.291 15.325s-2.183 13.143 0 40.137 49.612 21.166 74.423 17.52 30.685 0.24 30.685 0.24c32.103 26.995 27.726 96.572 27.726 96.572h202.834c-54.72-123.005-14.56-175.383-14.56-175.383 54.274-61.28 53.954-160.777 53.954-160.777zM278.115 314.663c-74.707 0-135.268-60.562-135.268-135.268s60.562-135.268 135.268-135.268c74.707 0 135.269 60.562 135.269 135.268 0 0.012 0 0.024 0 0.036-0.019 74.69-60.574 135.232-135.269 135.232 0 0 0 0 0 0z"></path>
<path d="M312.675 89.143h-70.857v58.285h-58.285v70.857h58.286v57.143h70.857v-57.143h58.286v-70.857h-58.286v-58.285z"></path>
</svg>
