<?xml version="1.0" encoding="utf-8"?>
<!-- Generated by IcoMoon.io -->
<!DOCTYPE svg PUBLIC "-//W3C//DTD SVG 1.1//EN" "http://www.w3.org/Graphics/SVG/1.1/DTD/svg11.dtd">
<svg version="1.1" xmlns="http://www.w3.org/2000/svg" xmlns:xlink="http://www.w3.org/1999/xlink" width="640" height="640" viewBox="0 0 640 640">
<g id="icomoon-ignore">
</g>
<path d="M402.663 243.941c0-10.959-8.896-19.837-19.837-19.837h-125.656c-10.954 0-19.837 8.878-19.837 19.837v125.661h35.048v148.798h95.229v-148.798h35.053v-125.661z"></path>
<path d="M362.979 164.583c0 23.739-19.244 42.984-42.984 42.984s-42.984-19.244-42.984-42.984c0-23.739 19.244-42.984 42.984-42.984s42.984 19.244 42.984 42.984z"></path>
<path d="M319.61 12.805c-85.1 0-157.131 29.691-216.076 89.080-60.5 61.443-90.734 134.144-90.734 218.116 0 83.961 30.234 156.166 90.734 216.577 60.482 60.412 132.514 90.617 216.076 90.617 84.581 0 157.892-30.45 219.925-91.386 58.433-57.843 87.665-129.786 87.665-215.809s-29.738-158.726-89.202-218.116c-59.474-59.389-132.271-89.080-218.388-89.080zM320.379 68.088c69.721 0 128.923 24.572 177.634 73.734 49.209 48.637 73.809 108.026 73.809 178.178 0 70.649-24.084 129.279-72.28 175.872-50.756 50.174-110.473 75.262-179.163 75.262-68.703 0-127.91-24.825-177.634-74.493s-74.586-108.542-74.586-176.641c0-68.099 25.12-127.489 75.36-178.178 48.191-49.162 107.135-73.734 176.861-73.734z"></path>
</svg>
