<?xml version="1.0" encoding="utf-8"?>
<!-- Generated by IcoMoon.io -->
<!DOCTYPE svg PUBLIC "-//W3C//DTD SVG 1.1//EN" "http://www.w3.org/Graphics/SVG/1.1/DTD/svg11.dtd">
<svg version="1.1" xmlns="http://www.w3.org/2000/svg" xmlns:xlink="http://www.w3.org/1999/xlink" width="640" height="640" viewBox="0 0 640 640">
<g id="icomoon-ignore">
</g>
<path d="M244.844 372.096c-12.998 0-22.813-4.752-29.438-14.254-6.688-9.436-10-22.061-10-37.811 0-34.688 13.123-52.064 39.438-52.064 5.25 0 10.938 1.752 17.063 5.252s11.311 9.625 15.5 18.375l39.438-20.5c-15.75-28.375-41.875-42.562-78.314-42.562-24.906 0-45.498 8.25-61.746 24.688-16.314 16.5-24.504 38.748-24.504 66.813 0 28.75 8.098 51.187 24.189 67.313 16.125 16.125 37.377 24.125 63.625 24.125 16.5 0 31.562-4.125 45.221-12.311 13.654-8.254 24.342-19.564 32.092-33.939l-36.313-18.375c-7 16.813-19.096 25.252-36.25 25.252zM414.654 372.096c-12.998 0-22.809-4.752-29.438-14.254-6.688-9.436-10-22.061-10-37.811 0-34.688 13.127-52.064 39.438-52.064 5.564 0 11.439 1.752 17.564 5.252 6.158 3.5 11.313 9.625 15.562 18.375l38.873-20.5c-15.438-28.375-41.373-42.562-77.811-42.562-24.875 0-45.469 8.25-61.75 24.688-16.311 16.5-24.439 38.748-24.439 66.813 0 28.75 7.939 51.187 23.908 67.313 15.938 16.125 37.219 24.125 63.875 24.125 16.092 0 31.029-4.125 44.656-12.311 13.689-8.254 24.563-19.564 32.627-33.939l-36.814-18.375c-7 16.813-19.125 25.252-36.252 25.252zM538.010 101.883c-59.474-59.399-132.287-89.078-218.414-89.078-85.084 0-157.119 29.679-216.068 89.078-60.486 61.441-90.727 134.133-90.727 218.111 0 83.971 30.24 156.156 90.727 216.566 60.486 60.429 132.521 90.635 216.068 90.635 84.59 0 157.91-30.467 219.951-91.385 58.424-57.861 87.653-129.803 87.653-215.816 0-86.021-29.734-158.733-89.189-218.111zM499.553 495.873c-50.754 50.176-110.481 75.262-179.188 75.262-68.697 0-127.889-24.844-177.613-74.512-49.722-49.646-74.586-108.539-74.586-176.629 0-68.098 25.106-127.496 75.354-178.176 48.188-49.16 107.135-73.742 176.846-73.742 69.738 0 128.941 24.582 177.653 73.742 49.217 48.637 73.814 108.016 73.814 178.176 0 70.658-24.092 129.287-72.279 175.879z"></path>
</svg>
