<?xml version="1.0" encoding="utf-8"?>
<!-- Generated by IcoMoon.io -->
<!DOCTYPE svg PUBLIC "-//W3C//DTD SVG 1.1//EN" "http://www.w3.org/Graphics/SVG/1.1/DTD/svg11.dtd">
<svg version="1.1" xmlns="http://www.w3.org/2000/svg" xmlns:xlink="http://www.w3.org/1999/xlink" width="768" height="768" viewBox="0 0 768 768">
<g id="icomoon-ignore">
</g>
<path d="M588.256 138.176c-11.968-4.96-25.728-2.208-34.88 6.944-40.448 40.416-106.272 40.448-146.752 0-65.44-65.376-171.84-65.376-237.248 0-6.016 5.984-9.376 14.144-9.376 22.624v416c0 17.664 14.304 32 32 32s32-14.336 32-32v-145.696c40.672-31.904 99.872-29.152 137.376 8.32 65.44 65.376 171.872 65.376 237.248 0 6.016-6.016 9.376-14.144 9.376-22.624v-256c0-12.96-7.808-24.608-19.744-29.568z"></path>
</svg>
