<?xml version="1.0" encoding="utf-8"?>
<!-- Generated by IcoMoon.io -->
<!DOCTYPE svg PUBLIC "-//W3C//DTD SVG 1.1//EN" "http://www.w3.org/Graphics/SVG/1.1/DTD/svg11.dtd">
<svg version="1.1" xmlns="http://www.w3.org/2000/svg" xmlns:xlink="http://www.w3.org/1999/xlink" width="768" height="768" viewBox="0 0 768 768">
<g id="icomoon-ignore">
</g>
<path d="M544.5 223.5c88.5 0 159 72 159 160.5s-70.5 160.5-159 160.5h-129v-61.5h129c54 0 99-45 99-99s-45-99-99-99h-129v-61.5h129zM256.5 415.5v-63h255v63h-255zM124.5 384c0 54 45 99 99 99h129v61.5h-129c-88.5 0-159-72-159-160.5s70.5-160.5 159-160.5h129v61.5h-129c-54 0-99 45-99 99z"></path>
</svg>
