<?xml version="1.0" encoding="utf-8"?>
<!-- Generated by IcoMoon.io -->
<!DOCTYPE svg PUBLIC "-//W3C//DTD SVG 1.1//EN" "http://www.w3.org/Graphics/SVG/1.1/DTD/svg11.dtd">
<svg version="1.1" xmlns="http://www.w3.org/2000/svg" xmlns:xlink="http://www.w3.org/1999/xlink" width="768" height="768" viewBox="0 0 768 768">
<g id="icomoon-ignore">
</g>
<path d="M608 224h-448c-35.328 0-64 28.672-64 64v288c0 35.328 28.672 64 64 64h448c35.328 0 64-28.672 64-64v-288c0-35.328-28.672-64-64-64zM298.112 458.112l51.264 44.8c9.76 8.512 22.112 12.736 34.624 12.736s24.864-4.256 34.624-12.736l51.264-44.8-1.184 1.184 116.672 116.672h-402.752l116.672-116.672-1.184-1.184zM160 553.376v-216.096l115.264 100.832-115.264 115.264zM492.736 438.112l115.264-100.832v216l-115.264-115.168zM608 288v6.72l-210.432 184.128c-7.264 6.336-19.872 6.336-27.136 0l-210.432-184.128v-6.72h448z"></path>
</svg>
