<?xml version="1.0" encoding="utf-8"?>
<!-- Generated by IcoMoon.io -->
<!DOCTYPE svg PUBLIC "-//W3C//DTD SVG 1.1//EN" "http://www.w3.org/Graphics/SVG/1.1/DTD/svg11.dtd">
<svg version="1.1" xmlns="http://www.w3.org/2000/svg" xmlns:xlink="http://www.w3.org/1999/xlink" width="512" height="512" viewBox="0 0 512 512">
<g id="icomoon-ignore">
</g>
<path d="M128 48c0 26.51-21.49 48-48 48s-48-21.49-48-48c0-26.509 21.49-48 48-48s48 21.491 48 48z"></path>
<path d="M416 48c0 26.51-21.49 48-48 48s-48-21.49-48-48c0-26.509 21.49-48 48-48s48 21.491 48 48z"></path>
<path d="M128 128h-96c-17.673 0-32 14.327-32 32v160h32v192h40v-192h16v192h40v-192h32v-160c0-17.673-14.326-32-32-32z"></path>
<path d="M487.5 256l24.5-17.75-66.643-103.058c-2.96-4.49-7.979-7.192-13.357-7.192h-128c-5.378 0-10.396 2.702-13.357 7.192l-66.643 103.058 24.5 17.75 55.322-71.798 19.229 44.87-67.051 122.928h61.333l10.667 160h32v-160h16v160h32l10.667-160h61.333l-67.052-122.929 19.229-44.87 55.323 71.799z"></path>
</svg>
