<?xml version="1.0" encoding="utf-8"?>
<!-- Generated by IcoMoon.io -->
<!DOCTYPE svg PUBLIC "-//W3C//DTD SVG 1.1//EN" "http://www.w3.org/Graphics/SVG/1.1/DTD/svg11.dtd">
<svg version="1.1" xmlns="http://www.w3.org/2000/svg" xmlns:xlink="http://www.w3.org/1999/xlink" width="768" height="768" viewBox="0 0 768 768">
<g id="icomoon-ignore">
</g>
<path d="M672 224h-96c0-52.8-43.2-96-96-96h-384c-52.8 0-96 43.2-96 96v224c0 52.8 43.2 96 96 96v96l96-96c0 52.8 43.2 96 96 96h256l96 96v-96h32c52.8 0 96-43.2 96-96v-224c0-52.8-43.2-96-96-96zM96 480c-17.344 0-32-14.656-32-32v-224c0-17.344 14.656-32 32-32h384c17.344 0 32 14.656 32 32v32h-208c-44.128 0-80 35.872-80 80v144h-128zM704 544c0 17.344-14.656 32-32 32h-384c-17.344 0-32-14.656-32-32v-208c0-26.464 21.536-48 48-48h368c17.344 0 32 14.656 32 32v224z"></path>
</svg>
