<?xml version="1.0" encoding="utf-8"?>
<!-- Generated by IcoMoon.io -->
<!DOCTYPE svg PUBLIC "-//W3C//DTD SVG 1.1//EN" "http://www.w3.org/Graphics/SVG/1.1/DTD/svg11.dtd">
<svg version="1.1" xmlns="http://www.w3.org/2000/svg" xmlns:xlink="http://www.w3.org/1999/xlink" width="768" height="768" viewBox="0 0 768 768">
<g id="icomoon-ignore">
</g>
<path d="M384 511.5q25.5 0 45 19.5t19.5 45-19.5 45-45 19.5-45-19.5-19.5-45 19.5-45 45-19.5zM384 319.5q25.5 0 45 19.5t19.5 45-19.5 45-45 19.5-45-19.5-19.5-45 19.5-45 45-19.5zM384 256.5q-25.5 0-45-19.5t-19.5-45 19.5-45 45-19.5 45 19.5 19.5 45-19.5 45-45 19.5z"></path>
</svg>
