<?xml version="1.0" encoding="utf-8"?>
<!-- Generated by IcoMoon.io -->
<!DOCTYPE svg PUBLIC "-//W3C//DTD SVG 1.1//EN" "http://www.w3.org/Graphics/SVG/1.1/DTD/svg11.dtd">
<svg version="1.1" xmlns="http://www.w3.org/2000/svg" xmlns:xlink="http://www.w3.org/1999/xlink" width="512" height="512" viewBox="0 0 512 512">
<g id="icomoon-ignore">
</g>
<path d="M363.979 141.565h-220.298c-63.091 0-114.436 51.335-114.436 114.435s51.335 114.435 114.436 114.435h220.324c63.091 0 114.435-51.335 114.435-114.435-0.077-63.18-51.281-114.375-114.457-114.435zM56.264 256.063c0.046-45.519 34.797-82.907 79.216-87.132l228.553-0.403c0.111-0 0.242-0.001 0.373-0.001 9.026 0 17.733 1.373 25.921 3.922 34.599 10.939 60.204 44.214 60.204 82.657h-26.964c0-33.082-26.818-59.9-59.9-59.9l-109.786 0.26v148.15h-110.197c-48.215 0-87.418-39.337-87.418-87.552z"></path>
</svg>
