<?xml version="1.0" encoding="utf-8"?>
<!-- Generated by IcoMoon.io -->
<!DOCTYPE svg PUBLIC "-//W3C//DTD SVG 1.1//EN" "http://www.w3.org/Graphics/SVG/1.1/DTD/svg11.dtd">
<svg version="1.1" xmlns="http://www.w3.org/2000/svg" xmlns:xlink="http://www.w3.org/1999/xlink" width="512" height="512" viewBox="0 0 512 512">
<g id="icomoon-ignore">
</g>
<path d="M424.985 248.579c-0.037 0-0.081 0-0.125 0-42.058 0-76.154 34.096-76.154 76.154 0 29.825 17.145 55.645 42.116 68.143-8.764 16.76-21.045 30.536-35.744 41.175-17.557 12.713-39.058 20.212-62.308 20.286-54.9 0-101.022-42.823-112.945-100.127 9.801-7.76 16.625-22.036 17.521-38.67 25.272-10.606 48.089-33.032 66.209-65.734 24.324-43.895 37.722-101.889 37.722-163.316-0.007-5.899-3.156-11.061-7.863-13.904l-26.55-15.687c-0.053-17.549-14.291-31.755-31.847-31.755-17.589 0-31.847 14.259-31.847 31.847s14.258 31.847 31.847 31.847c5.634 0 10.927-1.463 15.518-4.029l18.215 10.925c-1.237 52.563-13.037 101.353-33.548 138.353-20.025 36.073-45.575 56.016-71.95 56.016s-51.955-19.901-71.99-56.025c-20.5-36.979-32.289-85.77-33.538-138.261l19.108-11.070c4.487 2.566 9.862 4.079 15.591 4.079 17.582 0 31.837-14.254 31.837-31.837s-14.254-31.837-31.837-31.837c-17.454 0-31.626 14.044-31.834 31.448l-27.354 15.851c-4.883 2.862-8.11 8.083-8.111 14.058 0 61.426 13.398 119.432 37.722 163.316 17.964 32.414 40.525 54.748 65.519 65.467 0.906 17.274 8.163 32.032 18.552 39.649 12.986 75 73.434 131.923 145.857 131.923 30.308-0.060 58.329-9.801 81.149-26.294 20.957-15.172 38.009-35.303 49.455-58.678 0.825-0.932 1.216-0.87 1.628-0.87 0.79 0.029 1.717 0.046 2.649 0.046 42.122 0 76.268-34.147 76.268-76.268s-34.147-76.268-76.268-76.268c-0.939 0-1.873 0.018-2.804 0.050zM424.985 368.526c-0.003 0-0.007 0-0.010 0-24.151 0-43.731-19.579-43.731-43.731s19.579-43.731 43.731-43.731c24.151 0 43.731 19.579 43.731 43.731-0.029 24.137-19.584 43.695-43.717 43.731z"></path>
<path d="M424.985 304.038c0 0 0 0 0 0-11.464 0-20.757 9.293-20.757 20.757s9.293 20.757 20.757 20.757c11.464 0 20.757-9.293 20.757-20.757 0 0 0 0 0 0-0.006-11.462-9.296-20.752-20.757-20.757z"></path>
</svg>
