<?xml version="1.0" encoding="utf-8"?>
<!-- Generated by IcoMoon.io -->
<!DOCTYPE svg PUBLIC "-//W3C//DTD SVG 1.1//EN" "http://www.w3.org/Graphics/SVG/1.1/DTD/svg11.dtd">
<svg version="1.1" xmlns="http://www.w3.org/2000/svg" xmlns:xlink="http://www.w3.org/1999/xlink" width="768" height="768" viewBox="0 0 768 768">
<g id="icomoon-ignore">
</g>
<path d="M604.48 224.384c25.856-15.872 42.976-37.536 51.36-65.088-25.152 13.344-50.208 22.496-75.232 27.552-22.496-24.192-50.976-36.48-85.12-36.48-33.376 0-61.568 11.712-84.576 34.496-22.88 22.944-34.432 50.816-34.432 83.36 0 9.888 1.248 18.72 3.744 26.208-98.432-3.36-179.904-44.192-244.096-122.784-10.88 19.232-16.32 38.816-16.32 59.072 0 41.632 17.568 74.624 52.64 98.848-20-1.696-37.632-6.752-52.64-15.040 0 29.728 8.736 54.56 26.24 76.416 17.568 21.632 40.128 35.424 67.68 41.312-9.984 2.56-20.512 3.776-31.328 3.776-9.984 0-17.056-0.832-21.248-2.656 7.36 24.224 21.248 43.872 41.312 58.912 20 15.104 43.008 23.072 68.864 23.776-42.624 33.44-91.36 49.984-146.496 49.984-13.504 0-23.072-0.192-28.864-1.216 54.304 35.264 114.752 52.768 181.632 52.768 68.448 0 128.928-17.344 181.568-52.032 52.64-34.496 91.488-77.056 116.448-127.168 25.088-50.048 37.504-102.144 37.504-156.544v-14.976c24.256-18.24 43.872-38.784 58.88-61.472-21.76 9.376-44.256 15.744-67.52 18.976z"></path>
</svg>
